<svg xmlns="http://www.w3.org/2000/svg" version="1.1" xmlns:xlink="http://www.w3.org/1999/xlink" xmlns:svgjs="http://svgjs.dev/svgjs" width="1000" height="1000" viewBox="0 0 1000 1000"><rect width="1000" height="1000" fill="#110101"></rect><g transform="matrix(0.7,0,0,0.7,150,281.25)"><svg viewBox="0 0 576 360" data-background-color="#110101" preserveAspectRatio="xMidYMid meet" height="625" width="1000" xmlns="http://www.w3.org/2000/svg" xmlns:xlink="http://www.w3.org/1999/xlink"><g id="tight-bounds" transform="matrix(1,0,0,1,0,0)"><svg viewBox="0 0 576 360" height="360" width="576"><g><svg></svg></g><g><svg viewBox="0 0 576 360" height="360" width="576"><g><path xmlns="http://www.w3.org/2000/svg" d="M132.115 90l155.885-90 155.885 90v180l-155.885 90-155.885-90zM138.521 266.302l149.479 86.301 149.479-86.301v-172.604l-149.479-86.301-149.479 86.301z" fill="#f40a0a" fill-rule="nonzero" stroke="none" stroke-width="1" stroke-linecap="butt" stroke-linejoin="miter" stroke-miterlimit="10" stroke-dasharray="" stroke-dashoffset="0" font-family="none" font-weight="none" font-size="none" text-anchor="none" style="mix-blend-mode: normal" data-fill-palette-color="tertiary"></path></g><g transform="matrix(1,0,0,1,172.8,144.48332291871984)"><svg viewBox="0 0 230.4 71.03335416256033" height="71.03335416256033" width="230.4"><g><svg viewBox="0 0 230.4 71.03335416256033" height="71.03335416256033" width="230.4"><g><svg viewBox="0 0 230.4 71.03335416256033" height="71.03335416256033" width="230.4"><g><svg viewBox="0 0 230.4 71.03335416256033" height="71.03335416256033" width="230.4"><g id="textblocktransform"><svg viewBox="0 0 230.4 71.03335416256033" height="71.03335416256033" width="230.4" id="textblock"><g><svg viewBox="0 0 230.4 71.03335416256033" height="71.03335416256033" width="230.4"><g transform="matrix(1,0,0,1,0,0)"><svg width="230.4" viewBox="4 -37.599998474121094 124.81632995605469 38" height="71.03335416256033" data-palette-color="#f4f0f0"><g transform="matrix(1,0,0,1,0,0)"><g><svg width="4.58798362885679" viewBox="3.1600000858306885 -36.36000061035156 28.68000030517578 36.36000061035156" height="5.818074595602913" data-palette-color="#f4f0f0" id="scriptelement" x="120.83678624512991" y="-8.594587510661563"><path d="M10.85 0L3.16 0 3.16-36.36 17.51-36.36Q21.63-36.36 24.55-34.9 27.47-33.43 29-30.76 30.54-28.09 30.54-24.49L30.54-24.49Q30.54-20.86 28.98-18.26 27.41-15.66 24.46-14.28 21.5-12.89 17.31-12.89L17.31-12.89 7.71-12.89 7.71-19.07 16.07-19.07Q18.27-19.07 19.73-19.67 21.18-20.28 21.9-21.48 22.62-22.69 22.62-24.49L22.62-24.49Q22.62-26.3 21.9-27.54 21.18-28.78 19.72-29.43 18.25-30.08 16.03-30.08L16.03-30.08 10.85-30.08 10.85 0ZM14.51-16.55L22.8-16.55 31.84 0 23.35 0 14.51-16.55Z" opacity="1" transform="matrix(1,0,0,1,0,0)" fill="#f4f0f0" class="undefined-123" data-fill-palette-color="primary" id="p-123"></path></svg></g></g><path d="M117.445-5.686C117.445-8.826 119.991-11.371 123.131-11.371 126.271-11.371 128.816-8.826 128.816-5.686 128.816-2.546 126.271 0 123.131 0 119.991 0 117.445-2.546 117.445-5.686ZM123.131-0.553C125.966-0.553 128.264-2.851 128.264-5.686 128.264-8.52 125.966-10.818 123.131-10.818 120.296-10.818 117.998-8.52 117.998-5.686 117.998-2.851 120.296-0.553 123.131-0.553Z" fill="#f4f0f0" id="scriptcircle" data-fill-palette-color="primary"></path><path d="M34.4-34.5L38.15-34.5 38.15 0 34.65 0 34.65-27.55 22.35 0 19.8 0 7.5-27.45 7.5 0 4 0 4-34.5 7.7-34.5 21.05-4.6 34.4-34.5ZM44.5-13.7Q44.5-17.9 46.17-21.08 47.85-24.25 50.82-25.98 53.8-27.7 57.55-27.7L57.55-27.7Q61.45-27.7 64.27-25.9 67.1-24.1 68.35-21.3L68.35-21.3 68.35-27.3 71.85-27.3 71.85 0 68.35 0 68.35-6.05Q67.05-3.25 64.22-1.43 61.4 0.4 57.5 0.4L57.5 0.4Q53.8 0.4 50.82-1.35 47.85-3.1 46.17-6.3 44.5-9.5 44.5-13.7L44.5-13.7ZM68.35-13.65Q68.35-16.95 67-19.45 65.65-21.95 63.32-23.3 61-24.65 58.2-24.65L58.2-24.65Q55.3-24.65 53-23.35 50.7-22.05 49.37-19.58 48.05-17.1 48.05-13.7L48.05-13.7Q48.05-10.35 49.37-7.83 50.7-5.3 53-3.98 55.3-2.65 58.2-2.65L58.2-2.65Q61-2.65 63.32-4 65.65-5.35 67-7.85 68.35-10.35 68.35-13.65L68.35-13.65ZM92.84-27.8Q95.94-27.8 98.42-26.5 100.89-25.2 102.32-22.53 103.75-19.85 103.75-16L103.75-16 103.75 0 100.3 0 100.3-15.6Q100.3-20.05 98.07-22.4 95.84-24.75 92-24.75L92-24.75Q88.05-24.75 85.69-22.25 83.34-19.75 83.34-14.9L83.34-14.9 83.34 0 79.84 0 79.84-37 83.34-37 83.34-22.65Q84.64-25.1 87.17-26.45 89.69-27.8 92.84-27.8L92.84-27.8ZM113.24-32.45Q112.19-32.45 111.44-33.2 110.69-33.95 110.69-35.05L110.69-35.05Q110.69-36.15 111.44-36.88 112.19-37.6 113.24-37.6L113.24-37.6Q114.29-37.6 115.04-36.88 115.79-36.15 115.79-35.05L115.79-35.05Q115.79-33.95 115.04-33.2 114.29-32.45 113.24-32.45L113.24-32.45ZM111.49-27.3L114.99-27.3 114.99 0 111.49 0 111.49-27.3Z" opacity="1" transform="matrix(1,0,0,1,0,0)" fill="#f4f0f0" class="undefined-text-0" data-fill-palette-color="primary" id="text-0"></path></svg></g></svg></g></svg></g></svg></g></svg></g></svg></g></svg></g></svg></g><defs></defs></svg><rect width="576" height="360" fill="none" stroke="none" visibility="hidden"></rect></g></svg></g></svg>